<?xml version="1.0" standalone="no"?>
<!DOCTYPE svg PUBLIC "-//W3C//DTD SVG 20010904//EN"
 "http://www.w3.org/TR/2001/REC-SVG-20010904/DTD/svg10.dtd">
<svg version="1.0" xmlns="http://www.w3.org/2000/svg"
 width="1435.000000pt" height="528.000000pt" viewBox="0 0 1435.000000 528.000000"
 preserveAspectRatio="xMidYMid meet">

<g transform="translate(0.000000,528.000000) scale(0.100000,-0.100000)"
fill="#000000" stroke="none">
<path d="M5419 3522 c-146 -76 -154 -281 -14 -367 41 -25 58 -30 115 -30 56 0
73 4 108 28 117 77 136 234 39 331 -71 71 -160 84 -248 38z"/>
<path d="M2335 3509 c-144 -21 -255 -76 -356 -178 -88 -88 -124 -155 -147
-274 -39 -199 51 -403 222 -506 83 -50 163 -75 345 -111 176 -33 224 -52 264
-100 76 -89 24 -220 -101 -256 -68 -20 -197 -15 -257 10 -99 42 -164 115 -186
214 -7 29 -16 52 -21 52 -5 0 -83 -19 -174 -41 l-165 -42 7 -41 c18 -113 76
-219 168 -311 81 -81 170 -132 291 -167 68 -19 102 -23 230 -22 135 0 158 3
231 27 242 80 394 278 394 512 0 187 -105 352 -279 440 -85 42 -141 58 -328
94 -228 44 -278 79 -270 193 7 111 91 173 232 172 130 -1 223 -59 262 -164
l18 -47 162 46 c89 25 164 49 168 53 4 4 -1 31 -10 60 -73 224 -246 358 -501
388 -100 11 -115 11 -199 -1z"/>
<path d="M5930 2645 l0 -875 180 0 180 0 0 875 0 875 -180 0 -180 0 0 -875z"/>
<path d="M10758 3208 c-5 -119 -15 -154 -60 -195 -33 -31 -71 -43 -134 -43
l-54 0 2 -162 3 -163 102 -3 101 -3 4 -302 c4 -284 5 -305 26 -358 45 -113
120 -183 232 -216 67 -20 206 -22 278 -4 l52 13 0 154 0 154 -59 -6 c-71 -8
-125 8 -149 44 -15 22 -17 60 -20 274 l-4 247 119 3 118 3 0 160 0 160 -117 3
-118 3 0 174 0 175 -159 0 -158 0 -5 -112z"/>
<path d="M12862 3297 c-51 -19 -98 -62 -122 -112 -32 -65 -26 -165 13 -224 40
-61 97 -94 168 -99 200 -15 315 222 181 370 -64 71 -155 95 -240 65z m131 -41
c50 -18 76 -42 98 -91 24 -51 24 -109 0 -161 -77 -170 -324 -108 -324 81 0 81
51 153 123 173 47 14 59 13 103 -2z"/>
<path d="M12860 3085 l0 -125 25 0 c23 0 25 4 25 45 0 25 4 45 9 45 5 0 21
-20 35 -45 20 -34 33 -45 51 -45 14 0 25 2 25 4 0 2 -11 24 -25 48 l-25 45 25
23 c33 31 33 73 0 105 -20 21 -34 25 -85 25 l-60 0 0 -125z m108 76 c8 -4 12
-19 10 -32 -2 -19 -10 -25 -35 -27 -32 -3 -33 -2 -33 32 0 31 3 36 23 36 12 0
28 -4 35 -9z"/>
<path d="M3815 2982 c-71 -24 -137 -65 -174 -107 l-31 -36 0 66 0 65 -175 0
-175 0 0 -605 0 -605 179 0 180 0 3 378 c3 364 4 378 25 417 41 77 88 105 179
105 70 0 124 -27 155 -77 24 -38 24 -40 29 -428 l5 -390 75 -3 c41 -2 121 0
178 3 l102 7 0 356 c0 218 4 372 11 395 13 47 63 106 106 123 43 18 137 18
172 -1 39 -20 78 -69 91 -113 6 -22 10 -181 10 -398 l0 -361 77 -7 c42 -3 120
-6 175 -6 l98 0 0 433 c0 479 -2 499 -64 612 -39 72 -111 133 -193 166 -50 21
-75 24 -188 24 -127 0 -132 -1 -197 -33 -43 -21 -84 -51 -116 -87 l-49 -54
-29 40 c-38 51 -116 104 -183 123 -74 21 -212 20 -276 -2z"/>
<path d="M6896 2985 c-198 -55 -368 -230 -420 -431 -50 -198 -16 -411 90 -567
245 -359 843 -336 1021 38 20 44 32 80 27 85 -5 4 -72 26 -149 48 -122 35
-141 38 -150 25 -45 -68 -69 -93 -107 -112 -159 -76 -363 10 -394 167 l-6 32
413 2 414 3 3 107 c3 132 -15 228 -64 328 -68 138 -196 237 -355 275 -79 18
-256 18 -323 0z m282 -301 c56 -28 96 -81 108 -142 l7 -32 -237 0 c-231 0
-236 0 -236 20 0 32 36 95 72 125 50 42 86 54 164 55 56 0 81 -5 122 -26z"/>
<path d="M9560 2984 c-98 -26 -161 -64 -241 -143 -123 -123 -179 -270 -179
-471 0 -197 56 -345 175 -466 111 -114 239 -167 400 -168 50 0 109 5 132 12
58 17 131 69 170 120 l33 44 0 -49 c0 -99 -12 -93 187 -93 l176 0 -7 31 c-3
17 -6 287 -6 600 l0 569 -175 0 -175 0 0 -67 0 -67 -36 43 c-74 86 -164 121
-308 120 -50 0 -116 -7 -146 -15z m326 -323 c58 -26 110 -84 135 -150 24 -64
30 -189 10 -258 -17 -63 -70 -134 -125 -168 -44 -27 -58 -30 -131 -30 -73 0
-87 3 -131 30 -55 34 -107 105 -126 168 -15 53 -14 179 1 234 19 70 70 134
130 165 67 35 171 39 237 9z"/>
<path d="M11841 2984 c-154 -41 -301 -162 -371 -307 -103 -214 -91 -479 31
-672 219 -347 772 -370 997 -43 43 63 76 147 59 153 -6 2 -70 21 -142 41 -71
20 -135 39 -142 41 -6 2 -14 -5 -18 -17 -11 -34 -64 -89 -109 -112 -59 -31
-173 -31 -241 0 -81 37 -128 92 -146 170 l-7 32 414 0 414 0 6 26 c10 41 -4
232 -22 299 -52 196 -203 344 -395 390 -81 19 -256 18 -328 -1z m252 -285 c67
-18 122 -81 141 -161 l6 -28 -240 0 c-158 0 -240 4 -240 10 0 25 33 88 63 119
18 18 50 42 72 52 45 21 138 25 198 8z"/>
<path d="M8162 2970 c-197 -52 -348 -213 -398 -425 -24 -102 -15 -256 19 -354
49 -140 147 -255 269 -315 90 -46 161 -59 277 -54 114 6 187 31 251 85 l43 37
-6 -74 c-9 -105 -25 -148 -77 -202 -57 -59 -130 -83 -230 -76 -113 8 -197 69
-231 166 -9 26 -15 31 -31 26 -11 -3 -81 -23 -155 -45 -75 -21 -138 -41 -141
-44 -11 -11 30 -116 69 -174 113 -169 324 -261 569 -248 291 15 480 160 561
427 23 74 23 84 27 673 l3 597 -175 0 -176 0 0 -61 0 -61 -26 31 c-14 17 -53
44 -87 61 -110 53 -227 63 -355 30z m331 -337 c79 -44 127 -129 127 -228 0
-164 -97 -265 -254 -265 -110 0 -192 52 -234 149 -25 57 -22 176 7 233 64 133
223 182 354 111z"/>
<path d="M5337 2963 c-4 -3 -7 -273 -7 -600 l0 -593 185 0 185 0 0 600 0 600
-178 0 c-98 0 -182 -3 -185 -7z"/>
</g>
</svg>
